<svg id="SvgjsSvg1011" width="288" height="288" xmlns="http://www.w3.org/2000/svg" version="1.1" xmlns:xlink="http://www.w3.org/1999/xlink" xmlns:svgjs="http://svgjs.com/svgjs"><defs id="SvgjsDefs1012"></defs><g id="SvgjsG1013"><svg xmlns="http://www.w3.org/2000/svg" version="1.0" viewBox="0 0 512 512" width="288" height="288"><g transform="matrix(.1 0 0 -.1 0 512)" fill="#ffffff" class="color000 svgShape"><path d="M1288 4781c-145-47-269-174-312-320-14-49-16-245-16-1902 0-1785 1-1849 19-1908 46-147 172-272 320-315 77-22 365-22 442 0 148 43 274 168 320 315 18 59 19 123 19 1909 0 1786-1 1850-19 1909-46 147-172 272-320 315-82 24-375 22-453-3zM3368 4781c-145-47-269-174-312-320-14-49-16-245-16-1902 0-1785 1-1849 19-1908 46-147 172-272 320-315 77-22 365-22 442 0 148 43 274 168 320 315 18 59 19 123 19 1909 0 1786-1 1850-19 1909-46 147-172 272-320 315-82 24-375 22-453-3z" fill="#ffffff" class="color000 svgShape"></path></g></svg></g></svg>