<?xml version="1.0" standalone="no"?>
<!DOCTYPE svg PUBLIC "-//W3C//DTD SVG 20010904//EN"
 "http://www.w3.org/TR/2001/REC-SVG-20010904/DTD/svg10.dtd">
<svg version="1.0" xmlns="http://www.w3.org/2000/svg"
 width="512.000000pt" height="512.000000pt" viewBox="0 0 512.000000 512.000000"
 preserveAspectRatio="xMidYMid meet">
<metadata>
Created by potrace 1.16, written by Peter Selinger 2001-2019
</metadata>
<g transform="translate(0.000000,512.000000) scale(0.100000,-0.100000)"
fill="#000000" stroke="none">
<path d="M1288 4781 c-145 -47 -269 -174 -312 -320 -14 -49 -16 -245 -16
-1902 0 -1785 1 -1849 19 -1908 46 -147 172 -272 320 -315 77 -22 365 -22 442
0 148 43 274 168 320 315 18 59 19 123 19 1909 0 1786 -1 1850 -19 1909 -46
147 -172 272 -320 315 -82 24 -375 22 -453 -3z"/>
<path d="M3368 4781 c-145 -47 -269 -174 -312 -320 -14 -49 -16 -245 -16
-1902 0 -1785 1 -1849 19 -1908 46 -147 172 -272 320 -315 77 -22 365 -22 442
0 148 43 274 168 320 315 18 59 19 123 19 1909 0 1786 -1 1850 -19 1909 -46
147 -172 272 -320 315 -82 24 -375 22 -453 -3z"/>
</g>
</svg>
