<?xml version="1.0" standalone="no"?>
<!DOCTYPE svg PUBLIC "-//W3C//DTD SVG 20010904//EN"
 "http://www.w3.org/TR/2001/REC-SVG-20010904/DTD/svg10.dtd">
<svg version="1.0" xmlns="http://www.w3.org/2000/svg"
 width="512.000000pt" height="512.000000pt" viewBox="0 0 512.000000 512.000000"
 preserveAspectRatio="xMidYMid meet">
<metadata>
Created by potrace 1.16, written by Peter Selinger 2001-2019
</metadata>
<g transform="translate(0.000000,512.000000) scale(0.100000,-0.100000)"
fill="#000000" stroke="none">
<path d="M442 5099 c-51 -26 -109 -90 -123 -139 -7 -23 -9 -818 -7 -2422 l3
-2386 30 -43 c17 -24 50 -57 73 -74 57 -40 165 -48 233 -18 88 40 4055 2336
4088 2366 49 47 71 100 71 177 0 77 -22 130 -71 177 -31 29 -3993 2323 -4084
2364 -57 26 -157 25 -213 -2z"/>
</g>
</svg>
