<svg id="SvgjsSvg1001" width="288" height="288" xmlns="http://www.w3.org/2000/svg" version="1.1" xmlns:xlink="http://www.w3.org/1999/xlink" xmlns:svgjs="http://svgjs.com/svgjs"><defs id="SvgjsDefs1002"></defs><g id="SvgjsG1008"><svg xmlns="http://www.w3.org/2000/svg" version="1.0" viewBox="0 0 512 512" width="288" height="288"><path d="M442 5099 c-51 -26 -109 -90 -123 -139 -7 -23 -9 -818 -7 -2422 l3-2386 30 -43 c17 -24 50 -57 73 -74 57 -40 165 -48 233 -18 88 40 4055 2336
4088 2366 49 47 71 100 71 177 0 77 -22 130 -71 177 -31 29 -3993 2323 -4084
2364 -57 26 -157 25 -213 -2z" transform="matrix(.1 0 0 -.1 0 512)" fill="#ffffff" class="color000 svgShape"></path></svg></g></svg>