<svg xmlns="http://www.w3.org/2000/svg" xmlns:xlink="http://www.w3.org/1999/xlink" width="700pt" height="700pt" version="1.1" viewBox="0 0 700 700">
 <defs fill="#ff8208">
  <symbol id="t" overflow="visible" fill="#ff8208">
   <path d="m0.23438-0.015625c-0.011719 0.011719-0.027344 0.015625-0.046875 0.015625h-0.03125c-0.042969 0-0.078125-0.0078125-0.10938-0.03125-0.023438-0.019531-0.03125-0.050781-0.03125-0.09375 0-0.039062 0.0078125-0.070312 0.03125-0.09375 0.03125-0.019531 0.066406-0.03125 0.10938-0.03125h0.03125c0.019531 0 0.035156 0.007812 0.046875 0.015625v0.046875c-0.011719-0.007812-0.027344-0.015625-0.046875-0.015625h-0.03125c-0.023438 0-0.042969 0.007813-0.0625 0.015625-0.011719 0.011719-0.015625 0.03125-0.015625 0.0625s0.0039062 0.054688 0.015625 0.0625c0.019531 0.011719 0.039062 0.015625 0.0625 0.015625h0.03125c0.019531 0 0.035156-0.0039062 0.046875-0.015625z" fill="#ff8208"/>
  </symbol>
  <symbol id="c" overflow="visible" fill="#ff8208">
   <path d="m0.17188-0.14062h-0.03125c-0.023437 0-0.039063 0.007813-0.046875 0.015625v0.046875 0.078125h-0.0625v-0.1875h0.0625v0.03125c0-0.007812 0.0039062-0.015625 0.015625-0.015625 0.007813-0.007813 0.023437-0.015625 0.046875-0.015625h0.015625z" fill="#ff8208"/>
  </symbol>
  <symbol id="a" overflow="visible" fill="#ff8208">
   <path d="m0.21875-0.09375v0.015625h-0.14062v0.046875h0.046875 0.03125c0.019531-0.0078125 0.035156-0.019531 0.046875-0.03125v0.046875c-0.011719 0.011719-0.027344 0.015625-0.046875 0.015625h-0.03125c-0.042969 0-0.074219-0.0039062-0.09375-0.015625-0.011719-0.019531-0.015625-0.046875-0.015625-0.078125s0.0039062-0.050781 0.015625-0.0625c0.019531-0.019531 0.046875-0.03125 0.078125-0.03125s0.054687 0.011719 0.078125 0.03125c0.019531 0.011719 0.03125 0.03125 0.03125 0.0625zm-0.0625-0.015625c0-0.019531-0.007812-0.03125-0.015625-0.03125 0-0.007813-0.011719-0.015625-0.03125-0.015625-0.011719 0-0.023438 0.007812-0.03125 0.015625v0.03125z" fill="#ff8208"/>
  </symbol>
  <symbol id="f" overflow="visible" fill="#ff8208">
   <path d="m0.10938-0.078125c-0.011719 0-0.023438 0.0078125-0.03125 0.015625v0.03125h0.015625c0.019531 0 0.03125-0.0039062 0.03125-0.015625 0.007812-0.0078125 0.015625-0.019531 0.015625-0.03125zm0.09375-0.03125v0.10938h-0.0625v-0.03125c0 0.011719-0.011719 0.023438-0.03125 0.03125h-0.03125c-0.023438 0-0.039062-0.0039062-0.046875-0.015625-0.011719-0.0078125-0.015625-0.023438-0.015625-0.046875 0-0.019531 0.0039062-0.03125 0.015625-0.03125 0.019531-0.007812 0.046875-0.015625 0.078125-0.015625h0.03125v-0.015625c0-0.007812-0.007813-0.015625-0.015625-0.015625 0-0.007813-0.011719-0.015625-0.03125-0.015625-0.011719 0-0.023438 0.007812-0.03125 0.015625h-0.03125v-0.046875h0.03125 0.046875c0.03125 0 0.050781 0.007812 0.0625 0.015625 0.019531 0.011719 0.03125 0.03125 0.03125 0.0625z" fill="#ff8208"/>
  </symbol>
  <symbol id="b" overflow="visible" fill="#ff8208">
   <path d="m0.09375-0.23438v0.046875h0.0625v0.046875h-0.0625v0.078125 0.015625h0.015625 0.046875v0.046875h-0.0625c-0.023438 0-0.039062-0.0039062-0.046875-0.015625-0.011719-0.0078125-0.015625-0.023438-0.015625-0.046875v-0.078125h-0.03125v-0.046875h0.03125v-0.046875z" fill="#ff8208"/>
  </symbol>
  <symbol id="i" overflow="visible" fill="#ff8208">
   <path d="m0.15625-0.15625v-0.10938h0.0625v0.26562h-0.0625v-0.03125c-0.011719 0.011719-0.023438 0.023438-0.03125 0.03125h-0.03125c-0.023438 0-0.042969-0.0039062-0.0625-0.015625-0.011719-0.019531-0.015625-0.046875-0.015625-0.078125s0.0039062-0.050781 0.015625-0.0625c0.019531-0.019531 0.039062-0.03125 0.0625-0.03125 0.007812 0 0.019531 0.007812 0.03125 0.015625 0.007812 0 0.019531 0.007813 0.03125 0.015625zm-0.046875 0.125c0.019531 0 0.03125-0.0039062 0.03125-0.015625 0.007813-0.0078125 0.015625-0.023438 0.015625-0.046875 0-0.007812-0.007812-0.019531-0.015625-0.03125 0-0.019531-0.011719-0.03125-0.03125-0.03125-0.011719 0-0.023438 0.011719-0.03125 0.03125v0.03125 0.046875c0.0078125 0.011719 0.019531 0.015625 0.03125 0.015625z" fill="#ff8208"/>
  </symbol>
  <symbol id="h" overflow="visible" fill="#ff8208">
   <path d="m0.125-0.03125c0.019531 0 0.03125-0.0039062 0.03125-0.015625 0.007812-0.0078125 0.015625-0.023438 0.015625-0.046875 0-0.007812-0.007813-0.019531-0.015625-0.03125 0-0.019531-0.011719-0.03125-0.03125-0.03125-0.011719 0-0.023438 0.011719-0.03125 0.03125v0.03125 0.046875c0.007812 0.011719 0.019531 0.015625 0.03125 0.015625zm-0.03125-0.125c0-0.007812 0.0039062-0.015625 0.015625-0.015625 0.019531-0.007813 0.035156-0.015625 0.046875-0.015625 0.019531 0 0.035156 0.011719 0.046875 0.03125 0.019531 0.011719 0.03125 0.03125 0.03125 0.0625s-0.011719 0.058594-0.03125 0.078125c-0.011719 0.011719-0.027344 0.015625-0.046875 0.015625h-0.046875c-0.011719-0.0078125-0.015625-0.019531-0.015625-0.03125v0.03125h-0.0625v-0.26562h0.0625z" fill="#ff8208"/>
  </symbol>
  <symbol id="g" overflow="visible" fill="#ff8208">
   <path d="m0-0.1875h0.0625l0.046875 0.125 0.046875-0.125h0.0625l-0.078125 0.20312c-0.011719 0.019531-0.023437 0.035156-0.03125 0.046875-0.011719 0.0078125-0.027344 0.015625-0.046875 0.015625h-0.03125v-0.046875h0.015625 0.015625c0.0078125 0 0.015625-0.0078125 0.015625-0.015625v-0.015625z" fill="#ff8208"/>
  </symbol>
  <symbol id="e" overflow="visible" fill="#ff8208">
   <path d="m0.03125-0.26562h0.0625v0.26562h-0.0625z" fill="#ff8208"/>
  </symbol>
  <symbol id="s" overflow="visible" fill="#ff8208">
   <path d="m0.078125-0.09375-0.0625-0.09375h0.046875l0.046875 0.046875 0.046875-0.046875h0.0625l-0.078125 0.09375 0.078125 0.09375h-0.0625l-0.046875-0.0625-0.046875 0.0625h-0.0625z" fill="#ff8208"/>
  </symbol>
  <symbol id="r" overflow="visible" fill="#ff8208">
   <path d="m0.15625-0.26562v0.046875h-0.046875-0.015625v0.015625 0.015625h0.0625v0.046875h-0.0625v0.14062h-0.0625v-0.14062h-0.03125v-0.046875h0.03125v-0.015625c0-0.019531 0.0039062-0.035156 0.015625-0.046875 0.0078125-0.007812 0.03125-0.015625 0.0625-0.015625z" fill="#ff8208"/>
  </symbol>
  <symbol id="d" overflow="visible" fill="#ff8208">
   <path d="m0.10938-0.15625c-0.011719 0-0.023438 0.007812-0.03125 0.015625v0.046875 0.046875c0.0078125 0.011719 0.019531 0.015625 0.03125 0.015625 0.019531 0 0.03125-0.0039062 0.03125-0.015625 0.007813-0.0078125 0.015625-0.023438 0.015625-0.046875 0-0.019531-0.007812-0.035156-0.015625-0.046875 0-0.007813-0.011719-0.015625-0.03125-0.015625zm0-0.03125c0.039063 0 0.066406 0.011719 0.078125 0.03125 0.019531 0.011719 0.03125 0.03125 0.03125 0.0625s-0.011719 0.058594-0.03125 0.078125c-0.011719 0.011719-0.039062 0.015625-0.078125 0.015625-0.03125 0-0.058594-0.0039062-0.078125-0.015625-0.011719-0.019531-0.015625-0.046875-0.015625-0.078125s0.0039062-0.050781 0.015625-0.0625c0.019531-0.019531 0.046875-0.03125 0.078125-0.03125z" fill="#ff8208"/>
  </symbol>
  <symbol id="q" overflow="visible" fill="#ff8208">
   <path d="m0.20312-0.15625c0.007813-0.007812 0.019531-0.015625 0.03125-0.015625 0.007813-0.007813 0.019531-0.015625 0.03125-0.015625 0.019531 0 0.035156 0.007812 0.046875 0.015625 0.007812 0.011719 0.015625 0.03125 0.015625 0.0625v0.10938h-0.0625v-0.09375-0.015625c0-0.007813-0.007813-0.015625-0.015625-0.015625v-0.015625c-0.011719 0-0.023438 0.007813-0.03125 0.015625-0.011719 0.011719-0.015625 0.023438-0.015625 0.03125v0.09375h-0.046875v-0.09375c0-0.019531-0.007812-0.03125-0.015625-0.03125 0-0.007812-0.007813-0.015625-0.015625-0.015625-0.011719 0-0.023438 0.007813-0.03125 0.015625v0.03125 0.09375h-0.0625v-0.1875h0.0625v0.03125c0-0.007812 0.0039062-0.015625 0.015625-0.015625 0.007813-0.007813 0.019531-0.015625 0.03125-0.015625 0.019531 0 0.03125 0.007812 0.03125 0.015625 0.007813 0 0.019531 0.007813 0.03125 0.015625z" fill="#ff8208"/>
  </symbol>
  <symbol id="p" overflow="visible" fill="#ff8208">
   <path d="m0.21875-0.10938v0.10938h-0.0625v-0.078125-0.03125-0.03125h-0.015625-0.015625c-0.011719 0-0.023438 0.007813-0.03125 0.015625v0.03125 0.09375h-0.0625v-0.26562h0.0625v0.10938c0-0.007812 0.0039062-0.015625 0.015625-0.015625 0.019531-0.007813 0.035156-0.015625 0.046875-0.015625 0.019531 0 0.035156 0.007812 0.046875 0.015625 0.007813 0.011719 0.015625 0.03125 0.015625 0.0625z" fill="#ff8208"/>
  </symbol>
  <symbol id="o" overflow="visible" fill="#ff8208">
   <path d="m0.03125-0.25h0.0625l0.09375 0.17188v-0.17188h0.0625v0.25h-0.0625l-0.09375-0.17188v0.17188h-0.0625z" fill="#ff8208"/>
  </symbol>
  <symbol id="n" overflow="visible" fill="#ff8208">
   <path d="m0.03125-0.078125v-0.10938h0.046875v0.015625 0.046875 0.03125 0.03125c0.0078125 0 0.015625 0.0078125 0.015625 0.015625h0.015625 0.03125c0.007813-0.0078125 0.015625-0.023438 0.015625-0.046875v-0.09375h0.0625v0.1875h-0.0625v-0.03125c-0.011719 0.011719-0.023438 0.023438-0.03125 0.03125h-0.03125c-0.023438 0-0.039062-0.0039062-0.046875-0.015625-0.011719-0.0078125-0.015625-0.03125-0.015625-0.0625z" fill="#ff8208"/>
  </symbol>
  <symbol id="m" overflow="visible" fill="#ff8208">
   <path d="m0.21875-0.10938v0.10938h-0.0625v-0.078125-0.03125-0.03125h-0.015625-0.015625c-0.011719 0-0.023438 0.007813-0.03125 0.015625v0.03125 0.09375h-0.0625v-0.1875h0.0625v0.03125c0-0.007812 0.0039062-0.015625 0.015625-0.015625 0.019531-0.007813 0.035156-0.015625 0.046875-0.015625 0.019531 0 0.035156 0.007812 0.046875 0.015625 0.007813 0.011719 0.015625 0.03125 0.015625 0.0625z" fill="#ff8208"/>
  </symbol>
  <symbol id="l" overflow="visible" fill="#ff8208">
   <path d="m0.03125-0.25h0.10938c0.03125 0 0.050781 0.011719 0.0625 0.03125 0.019531 0.011719 0.03125 0.027344 0.03125 0.046875 0 0.03125-0.011719 0.058594-0.03125 0.078125-0.011719 0.011719-0.03125 0.015625-0.0625 0.015625h-0.046875v0.078125h-0.0625zm0.0625 0.046875v0.0625h0.046875 0.015625c0.007812-0.007813 0.015625-0.019531 0.015625-0.03125 0-0.007813-0.007813-0.015625-0.015625-0.015625 0-0.007812-0.007812-0.015625-0.015625-0.015625z" fill="#ff8208"/>
  </symbol>
  <symbol id="k" overflow="visible" fill="#ff8208">
   <path d="m0.03125-0.1875h0.0625v0.1875c0 0.019531-0.011719 0.035156-0.03125 0.046875-0.011719 0.019531-0.027344 0.03125-0.046875 0.03125h-0.03125v-0.046875h0.015625c0.0078125 0 0.015625-0.0078125 0.015625-0.015625 0.0078125 0 0.015625-0.0078125 0.015625-0.015625zm0-0.078125h0.0625v0.046875h-0.0625z" fill="#ff8208"/>
  </symbol>
  <symbol id="j" overflow="visible" fill="#ff8208">
   <path d="m0.1875-0.1875v0.046875h-0.03125c-0.011719-0.007813-0.023438-0.015625-0.03125-0.015625-0.011719 0-0.023438 0.011719-0.03125 0.03125-0.011719 0.011719-0.015625 0.023438-0.015625 0.03125 0 0.023438 0.0039062 0.039062 0.015625 0.046875 0.007812 0.011719 0.019531 0.015625 0.03125 0.015625h0.03125c0.007812-0.0078125 0.019531-0.015625 0.03125-0.015625v0.046875h-0.03125-0.03125c-0.042969 0-0.074219-0.0039062-0.09375-0.015625-0.011719-0.019531-0.015625-0.046875-0.015625-0.078125s0.0039062-0.050781 0.015625-0.0625c0.019531-0.019531 0.050781-0.03125 0.09375-0.03125h0.03125 0.03125z" fill="#ff8208"/>
  </symbol>
 </defs>
 <g>
  <path d="m219.47 560 338.32-280-338.32-280-77.254 93.332 225.5 186.67-225.5 186.67z" fill="#ff8208"/>
  <use x="142.214844" y="561.023438" xlink:href="#t" fill="#ff8208"/>
  <use x="142.464844" y="561.023438" xlink:href="#c" fill="#ff8208"/>
  <use x="142.632812" y="561.023438" xlink:href="#a" fill="#ff8208"/>
  <use x="142.863281" y="561.023438" xlink:href="#f" fill="#ff8208"/>
  <use x="143.09375" y="561.023438" xlink:href="#b" fill="#ff8208"/>
  <use x="143.253906" y="561.023438" xlink:href="#a" fill="#ff8208"/>
  <use x="143.488281" y="561.023438" xlink:href="#i" fill="#ff8208"/>
  <use x="143.847656" y="561.023438" xlink:href="#h" fill="#ff8208"/>
  <use x="144.09375" y="561.023438" xlink:href="#g" fill="#ff8208"/>
  <use x="144.433594" y="561.023438" xlink:href="#f" fill="#ff8208"/>
  <use x="144.664062" y="561.023438" xlink:href="#e" fill="#ff8208"/>
  <use x="144.78125" y="561.023438" xlink:href="#e" fill="#ff8208"/>
  <use x="144.898438" y="561.023438" xlink:href="#a" fill="#ff8208"/>
  <use x="145.128906" y="561.023438" xlink:href="#s" fill="#ff8208"/>
  <use x="142.214844" y="561.363281" xlink:href="#r" fill="#ff8208"/>
  <use x="142.363281" y="561.363281" xlink:href="#c" fill="#ff8208"/>
  <use x="142.53125" y="561.363281" xlink:href="#d" fill="#ff8208"/>
  <use x="142.765625" y="561.363281" xlink:href="#q" fill="#ff8208"/>
  <use x="143.238281" y="561.363281" xlink:href="#b" fill="#ff8208"/>
  <use x="143.402344" y="561.363281" xlink:href="#p" fill="#ff8208"/>
  <use x="143.644531" y="561.363281" xlink:href="#a" fill="#ff8208"/>
  <use x="143.992188" y="561.363281" xlink:href="#o" fill="#ff8208"/>
  <use x="144.277344" y="561.363281" xlink:href="#d" fill="#ff8208"/>
  <use x="144.511719" y="561.363281" xlink:href="#n" fill="#ff8208"/>
  <use x="144.753906" y="561.363281" xlink:href="#m" fill="#ff8208"/>
  <use x="145.117188" y="561.363281" xlink:href="#l" fill="#ff8208"/>
  <use x="145.363281" y="561.363281" xlink:href="#c" fill="#ff8208"/>
  <use x="145.53125" y="561.363281" xlink:href="#d" fill="#ff8208"/>
  <use x="145.765625" y="561.363281" xlink:href="#k" fill="#ff8208"/>
  <use x="145.882812" y="561.363281" xlink:href="#a" fill="#ff8208"/>
  <use x="146.113281" y="561.363281" xlink:href="#j" fill="#ff8208"/>
  <use x="146.316406" y="561.363281" xlink:href="#b" fill="#ff8208"/>
 </g>
</svg>